# xmcd
#
# Track frame offsets:
#	150
#	14745
#	30762
#	42397
#	61707
#	71745
#	86550
#	96827
#	108295
#	119742
#	130482
#	141290
#	151537
#	161710
#	174310
#	186090
#	197732
#	208747
#
# Disc length: 3017 seconds
#
# Revision: 1
# Processed by: cddbd v1.5.2PL0 Copyright (c) Steve Scherf et al.
# Submitted via: EZCDAudioConverter 7.0.4.1
#
DISCID=f90bc712
DTITLE=Various Artist - Country Memories
DYEAR=1989
DGENRE=Country
TTITLE0=Hank Williams - Lovesick Blues
TTITLE1=Bob Wills and His Texas Playboys - San Antonio Rose
TTITLE2=Kitty Wells - It Wasn't God Who Made Honky Tonk Angels
TTITLE3=Tennessee Ernie Ford - Sixteen Tons
TTITLE4=Jim Reeves - Bimbo
TTITLE5=Everly Brothers - All I Have To Do Is Dream
TTITLE6=Conway Twitty - It's Only Make Believe
TTITLE7=Elvis Presley - A Fool Such As I
TTITLE8=Sonny James - Young Love
TTITLE9=Jimmie Rodgers - Kisses Sweeter Than Wine
TTITLE10=Bill Justis - Raunchy
TTITLE11=Everly Brothers - Claudette
TTITLE12=Jimmie Rodgers - Oh, Oh, I'm Falling In Love Again
TTITLE13=Elvis Presley - Love Me Tender
TTITLE14=Billy Grammer - Gotta Travel On
TTITLE15=Marvin Rainwater - Gonna Find Me A Bluebird
TTITLE16=Everly Brothers - 'Til I Kissed You
TTITLE17=Wink Martindale - Deck Of Cards
EXTD=
EXTT0=
EXTT1=
EXTT2=
EXTT3=
EXTT4=
EXTT5=
EXTT6=
EXTT7=
EXTT8=
EXTT9=
EXTT10=
EXTT11=
EXTT12=
EXTT13=
EXTT14=
EXTT15=
EXTT16=
EXTT17=
PLAYORDER=
